<mxfile host="app.diagrams.net" agent="Mozilla/5.0 (X11; Linux x86_64) AppleWebKit/537.36 (KHTML, like Gecko) Chrome/127.0.0.0 Safari/537.36" version="24.7.7">
  <diagram name="Pagina-1" id="9hgViOlAiGB-_KbfKejD">
    <mxGraphModel dx="2195" dy="754" grid="1" gridSize="10" guides="1" tooltips="1" connect="1" arrows="1" fold="1" page="1" pageScale="1" pageWidth="827" pageHeight="1169" math="0" shadow="0">
      <root>
        <mxCell id="0" />
        <mxCell id="1" parent="0" />
        <UserObject label="" plantUmlData="{&#xa;  &quot;data&quot;: &quot;@startuml\nautonumber\nETL_Script -&gt; Extractor : retrieve_data\nExtractor -&gt; NASA : request_data\nExtractor &lt;- NASA : json_data\nETL_Script &lt;- Extractor : json_data\nETL_Script -&gt; Transformer : transform_json_data\nTransformer -&gt; Transformer: clean_data\nTransformer -&gt; Transformer: transform_data\nTransformer -&gt; \&quot;Photon - Open Street Map\&quot;: get_location_by_lat_long\nTransformer &lt;- \&quot;Photon - Open Street Map\&quot;: location\nTransformer -&gt; Transformer: transform_data\nETL_Script &lt;- Transformer : transformed_data\nETL_Script -&gt; Loader : load_transformed_data\nLoader -&gt; Loader : ORM_DAO_mapping\ndatabase Database as DWH\nLoader-&gt; DWH : Load\nETL_Script &lt;- Loader: Done\n@enduml&quot;,&#xa;  &quot;format&quot;: &quot;png&quot;&#xa;}" id="KMTXPd4m3n61WNTeEr_9-1">
          <mxCell style="shape=image;noLabel=1;verticalAlign=top;aspect=fixed;imageAspect=0;image=data:image/png,iVBORw0KGgoAAAANSUhEUgAAA1oAAAJ4CAIAAADz0wVAAAAAKnRFWHRjb3B5bGVmdABHZW5lcmF0ZWQgYnkgaHR0cHM6Ly9wbGFudHVtbC5jb212zsofAAABh2lUWHRwbGFudHVtbAABAAAAeJyVkk9PwkAQxe/7KSac9FCCSIhpjBEtapAKsajHZmhHrGl363ZK5Ns7RZqCotHbTt/vzZ+XnheMlsssVViy0WU2J6uGs3EYRDbJGZwzGL6zxYiNBRcssU1oSWGMjKpRBLsbBIM18VZSwV+BU6cGXgujN2ozRuTtMXsZmTGzqItnYzOqKK6rsOG3iV2DC1FK+AesabsPbU1fjAQFDkxy0hCwJWLwMW+5sCAOUxMhJ7LOfBWmWNV6sdNDTv2tR+3/z4q7Qf4QEsX7Eh0bjNdcKo/wG7yRt8HJvR96g0mYYZ4nclvFzbEg8OoHFuA93Wy8YpVCfFX5ZdNPwgXPaFLnpOPqP1TTFDU/+GNYki0kCThqdzvdXrt3ECDDILfQ6cNRzz0+drsduPZnUMmHaoRLhPtSc5KRu0525N3WH2Col4k1OiPNavToN0C/51wkDAFZmQePvvLoGcuUxRGZWC504WF25ZyoMepFiQvpTVpdGulrV6IF6gPQZhxRieg8ogAAaRFJREFUeF7s3Q9wXVd96HtpyHgmMx7fXA/MSD6WLTuyLGFHFkkTEmKFEk8gqExwISYQQmQUcBu7NIEANfCS5k4VbgQBVEJjx225SXG4cQ1JSQBT3pV5LoqIQvv4U2LmtcQhhpkqFSBDMiHOMNVbaOGV7b1/e50tnbPXWues72fWaPZZe5299/r91rF/PmcfuWUOAAAAEWtJdwAAACAmlIMAAABRoxwEAACIGuUgAABAWH72s58dO3bskVPUtupJD6ofykEAAACffv3rXz/66NSdd/7Vtde+c/PmgY6OVW0S1T8wcMn27e/cs2fPY489pp6VPtBiUQ4CAAB48MILLzz00JevueZaU/9dcMGFV1319g984CMf//in9+y558EHv66b2lY9N974wbe85Wo15lR12LFt21s+//nPP/fcc+lDLxDlIAAAgFOzsyduueV/dHevV1XdOef03XTTh+6778Ef/OCp48dPFGlqpBqvnqWeq47Q1bVuZGTkxIkT6dMURjkIAADgzhe/+KAqBCuVyvbt737ggX986qnZbMFXsKnnqiOo46ijrV/f89BDD6VPVgzlIAAAgCO33PI/2traLrvs8iNH/jlb3i26qaOpY6ojj4yMpE9ZAOUgAACACx/72CdUxXb99Tc8+eTPsyVdjU0dUx1ZHX9sbCx94mooBwEAAEr3/e//68qVHe94x3C2kqtjU8fv6Oh4/PHH06e3ohwEAAAo3bvf/UddXeuKf19kcU0df926dTt37kyf3opyEAAAoFwvvPDCmjVrdu68MVvA1b39yZ+8d+3ateqM6YvIRzkIAABQru9+97vzd/Xdna3e6t7+8i/vVuf613/91/RF5KMcBAAAKNff/u3fqhLtox/9RLZ6q3tTZ1Hnuueee9IXkY9yEAAAoFxf/OIXVYn2Z392S7Z6q3tTZ1HnUmdMX0Q+ykEAAIByHTlyRJVo27Zdna3e6t7UWdS51BnTF5GPchAAAKBcjzzyiCrR1qxZ6+Cbxeos6lzqjOmLyEc5CAAAUC5dDlYqKx383kF1FspBAACAsOhycMeOP3Hwv5Los1AOAgAABESXgw8++PUPfvDmtjL/z2J1fHUWykEAAICwmHJQlW7/63/d3929vlKpbN/+7gce+MennprNlncFm3quOoI6jjqaOqY6suqkHAQAAAhOshxU7fHHj3/wgzeffXaX6jznnL6bbvrQffc9WPxbJmqkGq+epZ6rjqAKQXU0dUy9l3IQAAAgOKlyULd/+7fpz3zmb9/4xjevXNnRNu+CCy58y1uuvvHGD37845/es+ceNV43ta16PvCBj1x11dvVGD24o2PVW996zd/93ReOHZtJHpZyEAAAIDhiOWjav//701/+8uHbbx+7+uprX/WqzarO0wVfiupXe9UYNVKNV8/KHopyEAAAIET2cjDbvve9Y4888j3z7qDaVj3ZYWKjHAQAAAjOQsvBWhrlIAAAQHAoBwEAAKJGOQgAABA1ykEAAICoUQ4CAABEjXIQAAAgapSDAAAAUaMcBAAAiFqDlYO/+MXsyMjon//5bTffPBJJu+WWkVtvve3IkX9KhcK9r3/9Gzff/BfZK2yOduutHx0dveOXv/xletoB8/JyKLggvVxbmK1gxAJEEmliK7ikA18/BWcRjwYrB2+77WOPP348e+imb/fd94UDBw6kouHS3//9F++550D2wpqpqaV1xx2fTM88YB5fDlUXpMdrC7NVjViASCLN0qou6YZYP1VnEY8GKwdVOZ89bgztJz858T//5/9MRcOl2267PXtVzdfUNNMzD5jHl0PVBenx2sJsVSMWIJJIs7SqS7oh1k/VWcSjwcrBm29ugOVVUrvjjjtS0XCJcjBAfl8O9gXp99rCbPaIBYgk0uzNvqQbZf3YZxEPysGGaX6XLOVggPy+HOwL0u+1hdnsEQsQSaTZm31JN8r6sc8iHpSDDdP8LlnKwQD5fTnYF6Tfawuz2SMWIJJIszf7km6U9WOfRTympqZUifbFLx7Khqju7YEHvqbOpc6Yvoh8lIMvNr9LlnIwQH5fDvYF6ffawmz2iAWIJNLszb6kG2X92GcRjyeffFKVaHv33psNUd3bX//136lzqTOmLyIf5eCLze+SpRwMkN+Xg31B+r22MJs9YgEiiTR7sy/pRlk/9lnE44UXXlizZu3OnTdmQ1T3duONN61du1adMX0R+SgHX2x+lyzlYID8vhzsC9LvtYXZ7BELEEmk2Zt9STfK+rHPIirXX399V9e6H/zgqWyU6tgef/x4d3f3zp0706e3ohx8sfldspSDAfL7crAvSL/XFmazRyxAJJFmb/Yl3Sjrxz6LqDz++OMdHR3veMdwNkp1bNdd9251FnWu9OmtGr4cXLlyVbZzcc3vkqUcDJDfl4N9Qfq9NtOOHv2peg1effX27C73zR6xAC0oiXX8s47WKM2+pBe0fhbX6rLq7LOIzdjYWFtb2/XX3/Dkkz/PxqrGpo55443vU8dXZ0mfuJqi5eBZZ/13tSxMu+++B2+66cN6+4wzztAbquf4QlaP/otEN7WdHVCkXXzxq7OdYqt6YX6XrKUczAY/OybZqs50Ea1ex2yOcjAZjeS2WdJmPect8uzIbLMvSPHa8l6V5bV6LYy6NHvEAiQm8fjpL3mzQhYa6oWOr1fLW/N1b5YTlTH3IsdMjikyvmqzL+m89VOXU+tWl0PZZxGhkZERVbFddtnlR478czZci27f/Ob/+/rXD6ojq+OnT1lA0XLQsiZSuywjU63urxx7q3oKv0vWUg5WvfIaxxdp9Tpmc5SDy5b9tw0bztHb4jLObuRtWwJrX5B516ab5bD1bc5OVKTZIxagvCQudKmIbaHj69XEiy+jWU5UxnmLHNNySYtr9iVdZP3U2OpyKPss4vTQQw/19PRUKpV3vvPdDzzwj089NZuNW8GmnvulL3393e/+Y3U0dUx15PTJigmlHDRv8iX/wXfHHX9lRh48+FXdmfxX4KWXvlb9Mzp1THGk3pV8mG1+l+xCy8Fkpz0FYkzEf1iLwRePKT5dPFGqNUc5qFbdFVe8+cc//oWetek3y9hsiHvFkdlmX5B516ZbKl9iaoonURwpnkgcKR7TvAH22GM/TO4yD/UuyxGyzR6xAOUlcaX06haDIAY8e5C8keIxa2zFL76WXCcPfjzzOkru0g+zxxTPLnaKxxSb+Yei+qm2dWctkbcv6SLrxzTxMuyd+gp1pxiZuswiWidOnBgZGVm3bl1bW1tf36YPfODD9933YPFvmaiR99//Dx/60P+1aVO/OoIqBNXR1DHTpynMZzko/kXY27vBbN9002+jc3z+b44rr3yb7rSfLjnSHOrqq7evPPXxmeUmJ79LdqHloFhbiDMVo3f++Reap5tAicEXj5m8JLMtnijVmqMc1LNL/kxuJLfFRS6OzDb7gsy7Nt1ShxVTI64BcWTyaOZZNS6MvI3iR8g2e8QClJfE5BzNEhKDIIarxtTU2KqeyCy2qiPtlyS+uMS5i8cUzy52iscUm/6Hotp43ev+4KxTb1VUfaEl/+BNNfuSLrJ+xE6zLV6b2VBXaGYhPl0MbLbZZxG555577vOf//xVV13V0dHRNu/CCy9629uuuemm3Z/4xGf27LnnwQe/rto//MP/fffd937yk3/1oQ/dfM0111500UV68KpVq975znd+9atfXdDvlBEVLQfPStzLYn/fyLImUk3/E+TWW08rg8SnJzur/itQ3M4+zDa/S9ZSDorB19FTGxMT3039s8wycfEPUDPAEiLLMcWniyc63lzl4MDAa37841+I0zfbVRe5Jeb2BZl3bbpZ8iWmxj4L8SnZ8amH4jGz75umNoofIdvsEQtQXhKTL/nk+0lmgBgZSy7yRoqdNTbxmDV2ik18cYlPTD7MrsDkttgpPhSbHtPS0nL22d3i+CInSjb7ks5bP+IBq57Rfm1VO5vphenFr3/968cee2zv3r3XXXfdq1/9alXn6YIvRfWrvWqMGqnGq2elD7RYRctBcfWIuywjxaZezOopmzadqx+KTxc7xV3ikhUfZpvfJWspBy1Xrv/csY8Xn3722etWnvr7Rvz3X6pZjmm2LU83rZnKQb1htpN/hZuQ6pZa5JaRyWZfkHnXppslX6ZVXQNmW/xEKTs+7+ni2bN79UYyONkx9maPWIDykijOt2psLbnIGyl2iu1LX/o/JilqOzvANPGYYmfVXNsvSbfUi0t8ongc8exip+UgqabHqD+TX/Oay8z44i+0bLMv6drXT/FrEyMjnijb7LNAnp/97GfHjh175BS1rXrSg+rHZzmY/MeEfXmJneIucR2LD7PN75JdaDmo/4Z+/PHjhw59s/jf0GKnPfjiroU+3bQmKwd7el5u/zO06iK3BM2+IPOuTTdLvsTO4tdW/O9d8ZiWvXrDPtje7BELUF4SxflWja0lF3kjxc4am3jMqp3ZvXkDTBNfXEUeLrSz6i5xjDhNe2e22Zd0Seunamd2r73ZZ4FA+CwHxTUn3r5mOWZq11n5N2RYDqKb3yW70HIw+Udh8Q/QTRPvDhGDLx5EzJ14olRrsnIwecN41ZjYO7PNviDzrk03S75ME9eAeG3iDUbZ8XlPF8+e3as3ksc35xWPkG32iAUoL4nifKvG1pKLvJFiZ41NPKb4J3PVXNsvyTLS/lA38exip27iQVJNvCTxhSYGJNvsS7r29SNem73zeE6yLM0+C1h0dnamu0pTtBxMvVFsKRQsI1NN/AQq2Zn8ZnH26eLtvSvzv+ikj2y5EdjvkrWUg2JIkzFJxSc1UzF6Js7J746JwRePKeZOPFGqNVk5mNwWO6sGyhI0+4LMuzbdUocVzyKuAfHaxFlkx+eNFM+ePaPeKH6EbLNHLEB5SRTnm+w022K4kruKv2bFky6i5Z0o+ydz3khzKPsliU9P7ir4Z2DVSxKPKTbx4s0xUy+0bECyzb6k89aP+FeGODXx2uydyaebvfZmn0XTWL58eee8I0eOpPdJipR6RcbUS9FysJaW/IK6adlhdWm1HNnvkrWUg83UmqMcdNPsC9LvtYXZ7BELUDxJrOVP5qZsBQNiX9KNsn7ss2gapnQbGhr61a9+dfpOQZFSr8iYenFRDrpsBV9jYvO7ZCkHA+T35WBfkH6vLcxmj1iA4kliLX8yN2UrGBD7km6U9WOfRdNIlm5mW9WF+i1DJVUjpko9cWTn/HuNqU5xpNj505/+1HSqbd2Zp9nKwVqa3yVLORggvy8H+4L0e21hNnvEAkQSafZmX9KNsn7ss2ganVI5uHnzZtPZ19enN3bs2KEGnHHGGeqn2raMXL58+dDQUKpTHJk8uxkgXlIeysEXm98lSzkYIL8vB/uC9HttYTZ7xAJEEmn2Zl/SjbJ+7LNoGlVrr1SnOEYzu4ofc8uWLafv+a2qT0+iHHyx+V2ylIMB8vtysC9Iv9cWZrNHLEAkkWZv9iXdKOvHPoumIdZe69ev7zxl+fLlZkByjCaOTI4x2+JI8cNi8+0WTXfmoRx8sfldspSDAfL7crAvSL/XFmazRyxAJJFmb/Yl3Sjrxz6LppGst8y22Fn1of3pYmfS+eefrzfEvXnS5eAttzTG8qp7+8lPPC/ZW2+NIvKNVQ56fDlUXZAery3MVjViASKJNEuruqQbYv1UnUXTMLVX8pvF5t4+1Wl/d1AcKd47KI4Ubyg0G3OnDxCly8HbbvvY448fz2a06dt9933hwQcfTEXDpfvu+9/33HMge2HN1NTSuuOOT6ZnHjCPL4eqC9LjtYXZqkYsQCSRZmlVl3RDrJ+qs2ga4u8dNJ/h6i8IJ4b/bpf5Kok40jzslL5EnBwpflgsduZJl4O/+MXsyMjon//5R2++eSSSdsstt916621HjvxTKhTuff3r38heXtO0W2/96OjoHb/85S/T0w6Yl5dDwQXp5drCbAUjFiCSSBNbwSUd+PopOAsEIl0O+vXII4+ku1Aaol22SCIcyTThAGvJO1IQIDdJCascjOQOg0AQ7bJFEuFIpgkHWEvekYIAuUkK5WC8iHbZIolwJNOEA6wl70hBgNwkhXIwXkS7bJFEOJJpwgHWknekIEBukkI5GC+iXbZIIhzJNOEAa8k7UhAgN0kJqxx0c78kNKJdtkgiHMk04QBryTtSECA3SQmrHAQAAIBjlIMAAABRoxwEAACIGuUgAABA1MIqB93cLwmNaJctkghHMk04wFryjhQEyE1SwioH3XybGhrRLlskEY5kmnCAteQdKQiQm6RQDsaLaJctkghHMk04wFryjhQEyE1SKAfjRbTLFkmEI5kmHGAteUcKAuQmKZSD8SLaZYskwpFMEw6wlrwjBQFyk5SwykE390tCI9pliyTCkUwTDrCWvCMFAXKTlLDKQQAAADjWSOXgyMjIxMREurdM/f396a7SuDwXAACA0TDl4IEDB5YuXTo2NpbesXDFC6+tW7emu0pT9aqqDgAAAFiExigHDx061NXV1dra6rgcdKnqVVUdAAAAsAhhlYN590uOjo4ODg62tbXllYOqVBofH++cNzMzozuPHTumexS1nRxstvXD7HOVoaGhSqViHopHSx7KbIsjRep0epi6APN009l5+vWkLjtvWHF50Ua9RBLhSKYJB1hL3pGCALlJSljloP3b1JZyUNVtw8PDetuUTdlaTZWVqnhasmSJ+qm29S7xudmH4nbxTtHAwIDeUBdgSk9V+KYGiJedHbZQ9mijdpFEOJJpwgHWknekIEBuktIk5WCy6jI3/OWVZZaaL3WzYN6zzPbWecmNvJGiqiOrDtAsuyzs0UbtIolwJNOEA6wl70hBgNwkpQnLQaNSqZiPU3t6eky/pRxMSe6yH63IyCyx2uvr6zNPT35anbrOvGHF2aON2kUS4UimCQdYS96RggC5SUozl4Ni51ymP2/YXE65lpItB/NGZonPEjtT26mHxc+YZI82ahdJhCOZJhxgLXlHCgLkJilhlYN590s++uije/fuXbZs2bZt29TGyZMnUwPEeih5R13yTjtLXZWS3JV3NKWnp+f1r3+9eWgZmSLeOyh2zmWuM2+YMj09vX///tnZ2WRnVl60US+RRDiSacIB1pJ3pCBAbpISVjmYZ/fu3S0JJ06cSA0QS7q8797qfvOdDPG52W9v5B1NUZeU/FDYMjLF/s3iZKfpN5edN0ybnJzs7e3dtWvX1NRUahcAAEBSY5SDje7o0aO6dDPyPvWuozvvvLOjo6NSqVxyySX79u2r+mYhAACIE+VgM7v11lvb2to2b978pje9qbu7mzcLAQBAFuVgk9MVodLf3/+2t73tVa96FW8WAgCApLDKQV24oDyVSmVgYEBtdHd3f+Yzn0knAHXl5v5f7yKZJhxgLXlHCgLkJilhlYNuvk0dFbWMOjs7TTm4cuXKDRs2fOITn5idnSXaZYskwpFMEw6wlrwjBQFykxTKwWZmasH29nZVCL7pTW/61re+ZfYS7bJFEuFIpgkHWEvekYIAuUkK5WDTUrWgKgFVIWjeDkwNINpliyTCkUwTDrCWvCMFAXKTFMrB5jQ5OdnV1ZV6OzCFaJctkghHMk04wFryjhQEyE1SwioH3dwv2fT4X0kCEUmEI5kmHGAteUcKAuQmKWGVgwAAAHCMchAAACBqlIMAAABRoxwEAACIWljloJv7JaER7bJFEuFIpgkHWEvekYIAuUlKWOWgm29TQyPaZYskwpFMEw6wlrwjBQFykxTKwXgR7bJFEuFIpgkHWEvekYIAuUkK5WC8iHbZIolwJNOEA6wl70hBgNwkhXIwXkS7bJFEOJJpwgHWknekIEBukhJWOejmfklolmg/88wzu085ePBgencD6u/vT3eVzxLhZhLJNOEAa8k7UhAgN0kJqxxEIG644YaWlpbOeWpjYmIiPcK3hZZ3VcdXHQAAQLOiHISgra1tbGwsux2OhVZvVcdXHQAAQLOiHIRg8+bN9957r94Wy0FVPI2Pj+u3D2dmZnTnsWPHdI+itnWn2qt71HhTciVrL7Ntf3pn4kTJZ1mIpy54wLxhAAA0H8pB5JqYmLj99ttbWlpMaWhUKpXh4WG9bS/yBgYG9IYar56V2pvcrto5ODiofo6OjqoSbcmSJeqn2jZ7s8RT64MkB4gHzA4DAKBZhVUOurlfEpol2s8+++y73vUuVQguXbp0586d6d2nV2lbt27Ndor13CI6zcFTkoPziAdMqjpAs+yys0S4mUQyTTjAWvKOFATITVLCKgfdfJsamiXaQ0NDLfOef/759L55YoVUqVTMB6w9PT26Uyy5xE7x6Xkf2ooXkCKepa+vzxzQvGWYHKDlDVsQS4SbSSTThAOsJe9IQYDcJIVyMF6WaIv3CyaJ1VjVTns5KD49acuWLWa76uC5AmfJ2049LHIukSXCzSSSacIB1pJ3pCBAbpJCORgvS7RVObht27a9p3z/+99PDRArpOQ9dubeO/EGPvP0ZKf49Lx7+MQLSBFPLXbOZQ6YN0yZnp7ev3//7OxsslNkiXAziWSacIC15B0pCJCbpFAOxssSbVUO6g+Ltew7hWI1Jn6wa/96r9gpPj3ZafrtXyWxnyXZafrNAfOGaZOTk729vbt27ZqamkrtSrJEuJlEMk04wFryjhQEyE1SwioH3dwvCc19tLN1VV0cPXpUl25Gtn6tuz179qxcuXLFihWXXHLJvn37xDcL3UfYi0imCQdYS96RggC5SUpY5SCaW0nloC+f/OQn29razj333D/4gz9Yt25d1TcLAQAIE+UgsHi6IlS6urquuOKKV77ylZY3CwEACBPlYNR0KYM6Ovfcc9XP7u7uw4cPp8MNAECQKAeBxfvmN7+5evVqUwuq7b6+vjvvvJN3BwEADSSsctDN/ZLQiHaNTC1YqVQ6Ojre9ra3pe4djCTCkUwTDrCWvCMFAXKTlLDKQTffpoZGtGuhakFVBba3t1veDowkwpFMEw6wlrwjBQFykxTKwXgR7UWbnJzs6urKvh2YEkmEI5kmHGAteUcKAuQmKZSD8SLai8P/SpISyTThAGvJO1IQIDdJoRyMF9EuWyQRjmSacIC15B0pCJCbpIRVDrq5XxIa0S5bJBGOZJpwgLXkHSkIkJukhFUOAgAAwDHKQQAAgKhRDgIAAESNchAAACBqYZWDbu6XhEa0yxZJhCOZJhxgLXlHCgLkJilhlYNuvk0NjWiXLZIIRzJNOMBa8o4UBMhNUigH40W0yxZJhCOZJhxgLXlHCgLkJimUg/FadLSfeeaZ3accPHgwvTuhv78/3VUal+cqaNERbiyRTBMOsJa8IwUBcpMUysF4LTraN9xwQ0tLS+c8tTExMZEeccrWrVvTXaWpWg5WHVB3i45wY4lkmnCAteQdKQiQm6SEVQ66uV8S2qKj3dbWNjY2lt32q2q1V3VA3S06wo0lkmnCAdaSd6QgQG6SElY5iIawefPme++9V29bysGhoaFKpWIezszM6DcUFbVt6VR12/j4eKpTZJ6uxptqTzzmXKYczBsGAEBsKAexGD/60Y9un9fS0rJjx4707lOSFVhye3BwMNtptlUROTw8nB2QNTAwoDfUeFN6moObAaOjo6rmW7JkifqptvOGAQAQJ8pBLMbXvva1s+apcjDv3cG504s58T5CsRwUO0VVR1YdoFl2AQDQ9CgHsWAHDhw4evSo3rZ8WDx3epklfjgrlmtip0gc2dfXZ06U/LQ6dai8YQAAxCasctDN/ZLQFh3t4l8lySvmtmzZojfEek7sFIkjxc7Uduqh/SyLtugIN5ZIpgkHWEvekYIAuUlKWOWgm29TQysS7dnZ2f37909PTyc7ly1b1tPTs3de8Q+LxXv1xJpM7BSJ9w6KnXOZQ+UNq6MiEW4CkUwTDrCWvCMFAXKTFMrBeNmjPTU1tWPHjt7e3snJydQuVR22nLJ9+/bU3qRkBSZ+WCx2Fi8H7d8sTnaafvNVkrxhdWSPcNOIZJpwgLXkHSkIkJukUA7GS4z27Ozs3Xff/Xu/93vt7e2qVMrWglU98cQT73nPe+bmf9FMvX6By9GjR3XpZljekgyHGOHmE8k04QBryTtSECA3SaEcjFcq2lNTU9ddd93q1avXrl3b0dGxfv36RdSC2sMPP6wqtiNHjqR3RCaS9RzJNOEAa8k7UhAgN0kJqxx0c78kNB1t83ZgV1dXpVJpa2tTFWEttSCMSNZzJNOEA6wl70hBgNwkJaxyEI4dPnx4zZo1bShHOtwAAASJcjB2//mf/3njjTeuXbvWFDGvfe1rN2zYwLuDAABEgnIQv/PQQw+9+tWvbm9vVxXhhRdeSEUIAEAkKAdxGvNmoaoL1U8qQgAAml5Y5aCb+yWh2aP90EMPbdu2Tfy9gyjIHuGmEck04QBryTtSECA3SQmrHHTzbWpoRaIt/q8kKKhIhJtAJNOEA6wl70hBgNwkhXIwXkS7bJFEOJJpwgHWknekIEBukkI5GC+iXbZIIhzJNOEAa8k7UhAgN0mhHIwX0S5bJBGOZJpwgLXkHSkIkJukhFUOurlfEhrRLlskEY5kmnCAteQdKQiQm6SEVQ4CAADAMcpBAACAqFEOAgAARI1yEAAAIGphlYNu7peERrTLFkmEI5kmHGAteUcKAuQmKWGVgzV+m3pkZGRiYiLdm9Df35/uKo3Lcy1OjdFGVZFEOJJpwgHWknekIEBuktI85eDDDz+8dOnSsbGx9I6ErVu3prtKU7UcrDqgbLVEG0VEEuFIpgkHWEvekYIAuUlKk5SD3/nOdzZu3Nja2movB12qWu1VHVC2RUcbBUUS4UimCQdYS96RggC5SUozlIPPPvvsVVdddd5557W1tVnKwaGhoUqlYh7OzMx0nqK2LZ2qbhsfH091iszT1XhT7YnHnMuUg3nDyrO4aKO4SCIcyTThAGvJO1IQIDdJCascXNz9kpdddllXV9eTTz5pLwfnTq/AktuDg4PZTrOtisjh4eHsgKyBgQG9ocab0tMc3AwYHR1VNd+SJUvUT7WdN6xsi4s2ioskwpFMEw6wlrwjBQFyk5SwysHFUVXgG97whttvv33p0qVq4/jx4+kRpySLOfE+QrEcFDtFVUdWHaBZdgEAANRXM5SD3d3dZ81rbW0988wzLV8uTpZZ4oezYrkmdorEkX19feZEyU+rU4fKGwYAAFCqZigHjQV9WJy0ZcsWvSHWc2KnSBwpdqa2Uw/tZwEAAKijBisHZ2dn9+/fPz09nd4xb0HloHivnliTiZ0i8d5BsXMuc6i8YQAAAKUKqxy03C85NTV13XXX9fb2Tk5OpvedsqByUPywWOwsXg7av1mc7DT95qskecPKY4k26iKSCEcyTTjAWvKOFATITVLCKgez36aenZ3ds2ePKo/a29tVqWSpBfM88cQT73nPe+bmf9FMvX6By9GjR3XpZtjL0DBlo436iiTCkUwTDrCWvCMFAXKTlHDLwampqWuvvXbVPFVv9fT0LKIW1B5++GF1hCNHjqR3xM3NCotZJBGOZJpwgLXkHSkIkJukBFcOmrcD16xZ0zbv7LPPrqUWRB43KyxmkUQ4kmnCAdaSd6QgQG6SElY5uGvXrs7OTl0FwoF0AlBXbl7D3kUyTTjAWvKOFATITVLCKgcfeeSR2dnZj3zkI+vWrWtvb9cly+bNmzds2MC7g3Xn5u7UmEUS4UimCQdYS96RggC5SUpY5WDS+Pj46173uhUrVqiK8BWveAUVIQAAQBnCLQe15JuFa9asoSIEAACor9DLQWN8fPytb32r/fcOAgAAYKEaphzU7P8rCQAAABYqrHLQzf2S0Ih22SKJcCTThAOsJe9IQYDcJCWsctDNt6mhEe2yRRLhSKYJB1hL3pGCALlJCuVgvIh22SKJcCTThAOsJe9IQYDcJIVyMF5Eu2yRRDiSacIB1pJ3pCBAbpJCORgvol22SCIcyTThAGvJO1IQIDdJCascdHO/JDSiXbZIIhzJNOEAa8k7UhAgN0kJqxwEAACAY5SDAAAAUaMcBAAAiFpjlIMjIyO7EyYmJtIjXJmZmens7BwdHU3vqLf+/v50V2lcngsAAIQmrHIw737Jtra25cuXd57y2c9+Nj3CVU3j5izK1q1b0131ZqJddVJVB0CUt56bTCTThAOsJe9IQYDcJCWscjDv29SqHBwbG0v3ns5NyeLmLG6YaFedVNUBEOWt5yYTyTThAGvJO1IQIDdJadpyUD0cHx/X7ybOzMzoTv1Rb6qz+Eg92GzP5QwTD1ipVNTDo0ePpg4oGhoaUuPNQ/EsYqd4apHaq99wVePNpMRjzhWbNbLy1nOTiWSacIC15B0pCJCbpDRMOXjFFVfcddddn/vc5973vvepCia5d3R0VNUlS5Ys6Uzc1afKqeHhYb1tqpnBwUG9oQwMDOgNcWSyANLPEs+SHGa2LQdM/rQTjzyXmII4QDy1SE1fR1uNN6VnNj7irLPDIMpbz00mkmnCAdaSd6QgQG6S0hjlYHd391mntLa2iu8Upqqf5EPxPjyx8jPb4lPmrGcRD2iOkywE7YWaJh4kqeqp7WdRe020xZEFD2XZhbz13GQimSYcYC15RwoC5CYpYZWDRe6XzPvgOFWXiGVKX1+f+ZTTvCUm1j15n4daziLWZIbuTP60S44RL6bqqe1nUXuzXyUR45McoOUNQ0qR9dwEIpkmHGAteUcKAuQmKWGVg3nuvPPOb3/723q7lnJQrJbEzqQtW7aYbctZxAMaujP50y5vjLmYqqfOO4ImjhQ7U9uph/azAACA8DVGObhy5cpNmzbtnffSl750z5496RGZukQsU8yNbskb5sTiJu/2OMtZxKLK0J3Jn3bJMeLFVD21/SxiKMTOucyh8oahmUxPT+/fv392dja9AwDQdBqjHFR/M7Wcsn379vTuefoTVfFLHob51DX5dVqxhBI/n00O0MRh4qlrKQfFs4id4lxEYijETtNvYps3DE1mcnKyu7t7165dU1NT6X0AgCbSGOVg89G/cSZpbGzsiSeeeM973jM3/4tmkjVoLcQTpQcBOb7whS9UKpUVK1ZcfPHF+/bt481CAGhKYZWDbu6XDNnDDz+sKrYjR46kd5SAaJetOSKsKkJVDq5cufL8889fu3Zt9s3C5pgmQsBa8o4UBMhNUsIqB918mxoa0S5b00RYV4Rt886Zl3yzsGmmCe9YS96RggC5SUpY5aD++wZA4CqVivrZ3d19+PBhN39UIQasJe9IQYDcJCWsctDNnKER7bI1TYS/8pWv6PpPWbt2bW9v74UXXsi7g6g71pJ3pCBAbpJCORgvol225oiwqQU3bty4Zs2a66+/PnXvYHNMEyFgLXlHCgLkJilhlYNu7peERrTL1gQRVrXgihUr2tvbk28HpjTBNBEI1pJ3pCBAbpISVjkIIBz69w5m3w4EADQZykEAAv5XEgCIB+UgAABA1CgHAQAAohZWOejmfkloRLtskUQ4kmnCAdaSd6QgQG6SElY56Obb1NCIdtkiiXAk04QDrCXvSEGA3CSFcjBeRLtskUQ4kmnCAdaSd6QgQG6SQjkYL6JdtkgiHMk04QBryTtSECA3SaEcjBfRLlskEY5kmnCAteQdKQiQm6SEVQ66uV8SGtEuWyQRjmSacIC15B0pCJCbpIRVDgIAAMAxykEAZfnhD3+4e97BgwfT+/INDQ1VKpV0b2n6+/vTXQAQGcpBAKV49tlnVWHX1tbW2dn5/ve/P73bymWJVvVcVQcAQKOjHARQig996ENnnnnmt771rfSOAlxWYFXPVXUAADS6sMpBN/dLQiPaZYskwnnTbGtrGxsbS/cmzMzMdJ7yxBNPJHclK7Bjx46ZYWpbdyafq7bNs8bHx1OdIvN0Nd6cSzzmXKYczBuG2uWtJThDCgLkJilhlYNuvk0NjWiXLZII501TlYNvfOMb/+Zv/uaBBx4YGRmZmJhIDRgYGDDbg4ODiT2nVWDidnK8OU6lUhkeHtbb9rf0zFPUeHOfYvaYo6OjquZbsmSJ+qm284ahXvLWEpwhBQFykxTKwXgR7bJFEuG8aapy8MwzzzxrXmtra/adQkvFJpaAqe1sZ9WRRtWRVQdoll1YhLy1BGdIQYDcJIVyMF5Eu2yRRDhvmskPi8UPji21VHJXpVIxH8729PTozr6+PtNp3t4rWMPN5YwUj5kcoOUNQ+3y1hKcIQUBcpMUysF4Ee2yRRLhvGnWqxwUh4kDxE6ROFLsTG2nHtrPgoXKW0twhhQEyE1SwioH3dwvCY1oly2SCOdNU5WA27Zt2zuvpaUlWw4WvHdQHCbe/Fe8UBOfLnbOZQ6VNwy1y1tLcIYUBMhNUsIqBwE0jenp6ZZTtm/fnt6d883i7Lc3xG/yil8NLl4Oik8XO02/+SpJ3jAAaFyUgwCa1tGjR3XpZmTfpAQAUA4CAABEjXIQAAAgamGVg27ul4RGtMsWSYTbfEtfEBpWJC+ZkJGCALlJSljloJtvU0Mj2mWLJMJ+p0k52Ez8riXMkYIguUkK5WC8iHbZIomw32lSDjYTv2sJc6QgSG6SQjkYL6Jdtkgi7HealIPNxO9awhwpCJKbpFAOxotoly2SCPudJuVgM/G7ljBHCoLkJilhlYNu7peERrTLFkmE/U6TcrCZ+F1LmCMFQXKTlLDKQQBYEMpBAKgd5SCABkY5CAC1oxwEUK7Z2dn9+/dPT0+nd9QD5SAA1I5yEEBZHnnkkbe//e29vb2Tk5PpfXVCOQgAtQurHHRzvyQ0ol22SCKcnebs7Ozo6OjLX/7y9vb2NWvWlFcLzlEONpfsWoJjpCBAbpISVjno5tvU0Ih22SKJcHKa6o+trVu3VioVVaX19vaqirDUWnCOcrC5RPKSCRkpCJCbpFAOxotoly2SCKtpmrcDdSGovOIVr3BQC85RDjaXSF4yISMFAXKTFMrBeBHtskUS4V27dukS0Jf0BaFhRfKSCRkpCJCbpFAOxotoly2SCOt3Bz/5yU9u3Lixo6NDl2gbNmwo9RskaEqRvGRCRgoC5CYpYZWDbu6XhEa0yxZJhJPTnJqauvLKK1euXNne3r5u3ToqQixIJC+ZkJGCALlJSljlIIAmYN4sdPDNYgBA7SgHAZRlamrq2muv5T1CAAgc5SCAcpX6v5IAAGpHOQgAABC1sMpBN/dLQiPaZYskwpFMEw6wlrwjBQFyk5SwykE336aGRrTLFkmEI5kmHGAteUcKAuQmKZSD8SLaZYskwpFMEw6wlrwjBQFykxTKwXgR7bJFEuFIpgkHWEvekYIAuUkK5WC8iHbZIolwJNOEA6wl70hBgNwkJaxy0M39ktCIdtkiiXAk04QDrCXvSEGA3CQlrHIQAAAAjlEOAgAARI1yEED9fe9739t9uomJifQgV2ZmZjo7O0dHR9M7StDf35/uAoDgUQ4CqL+HH364M+ElL3nJ2NhYepCr4snNWbSq56o6AADcC6scdHO/JDSiXbZIIlxkmm1tbZSDWtUBMSuyllAqUhAgN0kJqxx0821qaES7bJFEuOo0R0ZGWlpaipSD6uH4+Lh+Q3FmZkZ36o96U53FR+rBZnsuZ5h4wEqloh4ePXo0dcAUc0B1BHMu8SxzxS4mWlXXEspGCgLkJimUg/Ei2mWLJMJVpym+NTg6OqoKoCVLlnQm7upT5dfw8LDeNmXT4OCg3lAGBgb0hjgyWWnpZ4lnSQ4z25YDJn+KzFWpI6jj6O3sZYsXkx0Ws6prCWUjBQFykxTKwXgR7bJFEmH7NC1vDc5laqzkw61btyb2/I5Y+Zlt8Slz1rOIBzTHKVgOigdMqjpAs+yKhH0twQFSECA3SaEcjBfRLlskEbZPU3xr0LAUakZfX5/5ONW89yYWWHkfvFrOIpaDRi3loHjZyQFa3rA42dcSHCAFAXKTlLDKQTf3S0Ij2mWLJML2adZeDorFltiZtGXLFrNtOYt4QKOWclDsTG2nHlpOEQn7WoIDpCBAbpISVjkIoMnUXg6Kd+aJVVTefXiWs4jVm6E7kz9F4hWKnXOZ4+QNAwCXKAcBlMheDuqPd8UveRji93bFkq7gh8XiMPHUBctB8QrFTtNvppw3DABcohwEgEL0b5xJslS6ANBAKAcBAACiFlY56OZ+SWhEu2yRRDiSacIB1pJ3pCBAbpISVjno5tvU0Ih22SKJcJtv6QtCw4rkJRMyUhAgN0mhHIwX0S5bJBH2O03KwWbidy1hjhQEyU1SKAfjRbTLFkmE/U6TcrCZ+F1LmCMFQXKTFMrBeBHtskUSYb/TpBxsJn7XEuZIQZDcJCWsctDN/ZLQiHbZIomw32lSDjYTv2sJc6QgSG6SElY5CAALQjkIALWjHATQwCgHAaB2lIMAGhjlIADUjnIQQLlmZ2f3798/PT2d3lEPlIMAULuwykE390tCI9pliyTClml+4xvfeOtb39rb2zs5OZneVyeUg83EspbgBikIkJukhFUOuvk2NTSiXbZIIpyd5uzs7C233LJ+/fr29vY1a9aUVwvOUQ42l+xagmOkIEBukkI5GC+iXbZIIpyc5je+8Y3LL798xYoVqkrbtGnThg0bSq0F5ygHm0skL5mQkYIAuUkK5WC8iHbZIomwmmby7UD9/whfdNFFDmrBOcrB5hLJSyZkpCBAbpJCORgvol22SCK8a9cuXQL6kr4gNKxIXjIhIwUBcpOUsMpBN/dLQiPaZYskwmqas7Ozd91116ZNmzo7O3WJtm7dup6eHgfvDqKZRPKSCRkpCJCbpIRVDgJoaFNTU9dcc82qVas6OjrWrFlDRQgADYFyEECdmTcL29vbOzs7qQgBIHCUgwDKMjU1NTw8XOrvHQQA1I5yEEC5Sv1fSQAAtQurHHRzvyQ0ol22SCIcyTThAGvJO1IQIDdJCascdPNtamhEu2yRRDiSacIB1pJ3pCBAbpJCORgvol22SCIcyTThAGvJO1IQIDdJoRyMF9EuWyQRjmSacIC15B0pCJCbpFAOxotoly2SCEcyTTjAWvKOFATITVLCKgfd3C8JjWiXLZIIRzJNOMBa8o4UBMhNUsIqBwEAAOAY5SAAAEDUKAcBAACiRjkIoBTPPPPM7lMOHjyY3l2OoaGhSqWS7q23/v7+dNdi1X6o+k65vkcD0CjCKgfd3C8JjWiXLZII503zhhtuaGlp6ZynNiYmJtIjFqJ42VR8ZBHi0bZu3ZruWizx+AtV5CBFxmjFR9Zd3lqCM6QgQG6SElY56Obb1NCIdtkiiXDeNNva2sbGxrLbogsuuCDddbriNUrxkUXU92hZdTl+kYMUGaMVH5mnajbz5K0lOEMKAuQmKZSD8SLaZYskwnnTrFoOzszM6PcO1cbg4KDuPHbsmO5U1LYZXLxGSY40p9BnyXY+8cQT2U4zck46b+rjVPGJ6lnj4+PZo2WJI5MnzV5AVtUpp8bYVT2aeM1iNhcqby3BGVIQIDdJoRyMF9EuWyQRzptmy7zb56mNHTt2pAaYsiOv+tHbo6OjqshYsmSJ+qm2zd482SOktgcGBkynKVySFYweYDmveNjktqoXh4eHswOykiPNhYnHtEiOWdBERHlnt88uu7EIeWsJzpCCALlJCuVgvIh22SKJcN40W1tbVRV41jy1kX13UCwgimzb5T1LPJ1IfFZS3gDxFOIRDHGk2GmRN2ahx9HynmW/vOzGIuStJThDCgLkJilhlYNu7peERrTLFkmE86ZZ9cNi84WM5DczKpWK/sxR6enpMf3FiwyxWElui4fq6+sz501+FiwOFg+b3BY7ReJIsdMiOWZBExHlnd1+eWI2FypvLcEZUhAgN0kJqxwE0DSqloNPP/30y172ss5it7jl9WeJxUpyWzyUODK1LXaK22KnqOpIsTMl7yB523Z5z7LPTswmgEZBOQigFMuWLevp6dk7T/yw2BQQ559/vukUb+ybq2s1I57CdA4PD1d9U008bHJb7BSJ9w4mv8BR5LcAJk+xoImI8i7ePjsxm9r09PT+/ftnZ2dT/QDCQTkIoBSqCNDfJlG2b9+e3n36p4pmW/wqq+m3fxMi+50J8WjJzuw3i8fHx5PlTuq8BU8hFkyifulbuqkB6a4Ey/XYJyKyHC15eeLsxGwak5OT69atUxXq1NRUaheAEFAOAvBDrCqKOHr0qKlRtOxbj6FZ9DXryCz66aL6Hk2rms3Dhw9XKpX29vZzzz137969vFkIBCWsctDN/ZLQiHbZIonwoqdp3nnKfrwYOfE9ucAVyaaqCDs6Otra2tasWbN69ersm4WLXkuoF1IQIDdJCascdPNtamhEu2yRRDiSaaIuTEWorFix4uyzz06+Wcha8o4UBMhNUigH40W0yxZJhPVf7cDirFu3Tv3s7u5WlWIkL5mQkYIAuUkK5WC8iHbZIolwJNNEXfz1X/91e3u7qv8qlcrv//7vn3feeZdccsm+fft4dzAQpCBAbpJCORgvol22SCIcyTRRO10Ldnd3X3rppV1dXbt27UrdO8ha8o4UBMhNUsIqB93cLwmNaJctkghHMk3U6LOf/ezKlStXrFiRfDswhbXkHSkIkJukhFUOAgCaz+TkZE9PT/btQACBoBwEAJSI/5UECB/lIAAAQNQoBwEAAKIWVjno5n5JaES7bJFEOJJpwgHWknekIEBukhJWOejm29TQiHbZIolwJNOEA6wl70hBgNwkhXIwXkS7bJFEOJJpwgHWknekIEBukkI5GC+iXbZIIhzJNOEAa8k7UhAgN0mhHIwX0S5bJBGOZJpwgLXkHSkIkJukhFUOurlfEhrRLlskEY5kmnCAteQdKQiQm6SEVQ4CAADAMcpBAB4888wzu085ePBgeve8oaGhSqWS7q23/v7+dBcARIZyEIAHN9xwQ0tLS+c8tTExMZEeMa++tZp4tK1bt6a7ACAylIMAPGhraxsbG8tup4gF3KLV92gA0DTCKgfd3C8JjWiXLZIIL26aiygHZ2Zm9LuJitrOdj7xxBPZTjNyTioHU59Hi09UzxofH88eDXW3uLWEOiIFAXKTlLDKQTffpoZGtMsWSYQXN81XvOIVvb29t89bunRpkXJQ3B4YGDCdg4ODqY25UwNGR0dVMbdkyRL1U22bvXM5h01uq3pxeHg4OwB1t7i1hDoiBQFykxTKwXgR7bJFEuHFTfPpp58+65TW1tZFl4NV6zPxWUl5A8RTiEdAvSxuLaGOSEGA3CSFcjBeRLtskUS49mkW/LBY3Bbrs76+PvOZb/KzYHGweNjkttiJMtS+llAjUhAgN0mhHIwX0S5bJBGucZoHDx5saWmpbzkojkxti53ittiJMtS4llA7UhAgN0kJqxx0c78kNKJdtkgiXHWas7Oz+/fvn56eTnY+99xze+e1trbu3LkzuSsprxQz2+K9g6ZzeHiYdwcbSNW1hLKRggC5SUpY5SCAZnL//fdfeeWVvb29k5OTqV2qOmyZt3HjxtQuLfvlD/Frv/ZvFo+PjycLON1vvkpS8BSUgwCaHuUggDr7j//4jz/6oz9SFVV7e/vatWuztSAAICiUgwDq5v7773/Vq17VNm9gYGDjxo3UggAQPspBALUybwfqQlC54oorqAUBoFGEVQ66uV8SGtEuWyQR/sxnPrNmzRpTCAKLFslLJmSkIEBukhJWOejm29TQiHbZIomwmubs7Oy+ffsuuOCC9evXr1q1Sv29vnLlyu7ubt4dxIJE8pIJGSkIkJukUA7Gi2iXLZIIJ6c5NTWlPzVWdWGlUqEixIJE8pIJGSkIkJukUA7Gi2iXLZIIZ6dp3ixsb29fvXo1FSEKyq4lOEYKAuQmKZSD8SLaZYskwpZpTk1N/fEf/7H4eweBLMtaghukIEBukhJWOejmfkloRLtskUS46jTF/5UEyKq6llA2UhAgN0kJqxwEAACAY5SDAAAAUaMcBAAAiBrlIAAAQNTCKgfd3C8JjWiXLZIIRzJNOMBa8o4UBMhNUsIqB918mxoa0S5bJBGOZJpwgLXkHSkIkJukUA7Gi2iXLZIIRzJNOMBa8o4UBMhNUigH40W0yxZJhCOZJhxgLXlHCgLkJimUg/Ei2mWLJMKRTBMOsJa8IwUBcpOUsMpBN/dLQiPaZYskwvZpjoyMTExMJHt++MMf7t69+1Of+lSy072ZmZnOzs7R0dH0jhL09/enuyCxryU4QAoC5CYpYZWDAJrJgQMHli5dOjY2ZnqeffbZyy677CUveUlLS8tXvvKVxNgXuSme3JxFq3quqgMAoFSUgwBKcejQoa6urtbW1mQ5+Kd/+qeqEPzWt7511VVXqY3UG4eam9rIzVm0queqOgAASkU5CKAUo6Ojg4ODbW1tyXLQPDx48GDqjUMjVRuph+Pj453zZmZmdKf+qDfVWXykHmy253KGiQesVCrq4dGjR1MHTDEHVEcw5xLPMlfsYgCgPJSDAEokloMTExMbNmxIvXE4N19BqgJoyZIlnYm7+lT5NTw8rLdN2aQKTb2hDAwM6A1xZLLS0s8Sz5IcZrYtB0z+FJmrUkdQx9Hb2csWLyY7DABKFVY56OZ+SWhEu2yRRNg+zWw52NPTs379+gsvvDC1y8i+O2i2t27dmtjzO2LlZ7bFp8xZzyIe0BynYDkoHjCp6gDNsqv52NcSHCAFAXKTlLDKQTffpoZGtMsWSYTt08yWgy3znn/++UWUg0ZfX5/5ONW89yYWWHkfvFrOIpaDRi3loHjZyQFa3rCmZ19LcIAUBMhNUigH40W0yxZJhO3TTNV8S5cuVT0/+clPDh48qIrCRZeDYrEldiZt2bLFbFvOIh7QqKUcFDtT26mHllM0H/taggOkIEBukkI5GC+iXbZIIpw3zUcffXTv3r3Lli3btm2b2jh58qTqfPrpp1UVODQ01NraunPnzvRz5llqI0O8M0+sovLuw7OcRazeDN2Z/CkSr1DsnMscJ29Y08tbS3CGFATITVIoB+NFtMsWSYTzprl79279ubB24sQJ3f/lL39ZPdy4cePpw1+kP94Vv+RhiN/bFUu6gh8Wi8PEUxcsB8UrFDtNv5ly3rCml7eW4AwpCJCbpIRVDrq5XxIa0S5bJBGOZJp59G+cSRI/AUcRka+lEJCCALlJSljlIAAAAByjHAQAAIga5SCAmrT5lr4gAMACUQ4CaGCUgwBQu7DKQTf3S0Ij2mWLJMJ+p0k52Ez8riXMkYIguUlKWOWgm29TQyPaZYskwn6nSTnYTPyuJcyRgiC5SQrlYLyIdtkiibDfaVIONhO/awlzpCBIbpJCORgvol22SCLsd5qUg83E71rCHCkIkpukUA7Gi2iXLZII+50m5WAz8buWMEcKguQmKWGVg27ul4RGtMsWSYT9TpNysJn4XUuYIwVBcpOUsMpBAM1ndnZ2//7909PT6R31QDkIALWjHARQiv/6r/+6++673/zmN/f29k5OTqZ31wnlIADUjnIQQJ39+7//+zve8Y6Ojo729va1a9eWVwvOUQ4CQD1QDgKoD/124Hnnnaf/77jXvva1GzduLLUWnKMcBIB6CKscdHO/JDSiXbZIIqymad4O1IWg8va3v91BLThHOdhcInnJhIwUBMhNUsIqB918mxoa0S5bJBHetWuXqQK9SF8QGlYkL5mQkYIAuUkK5WC8iHbZIomwmubs7Oy+ffsuuuiil7/85evWrVMl2ooVK7q6uhy8O4hmEslLJmSkIEBukkI5GC+iXbZIIpyc5tTU1PXXX79mzZpNmzZREWKhInnJhIwUBMhNUigH40W0yxZJhLPTNG8Wqopw9erVVIQoKLuW4BgpCJCbpIRVDrq5XxIa0S5bJBG2THNqamrnzp2l/t5BNBPLWoIbpCBAbpISVjkIoPmU+r+SAABqRzkIAAAQNcpBAACAqFEOAgAARC2sctDN/ZLQiHbZIolwJNOEA6wl70hBgNwkJaxy0M23qaER7bJFEuFIpgkHWEvekYIAuUkK5WC8iHbZIolwJNOEA6wl70hBgNwkhXIwXkS7bJFEOJJpwgHWknekIEBukkI5GC+iXbZIIhzJNOEAa8k7UhAgN0kJqxys5X7JkZGRiYmJIp2OzczMdHZ2jo6OpneUoL+/P92VQ42sJdooIpIIRzJNOMBa8o4UBMhNUsIqBxftwIEDS5cuHRsbq9qZVLx4qoWbs2jFz1V1ZNUBAACgOTRDOXjo0KGurq7W1tZk5Sd2pripeNycRSt+rqojqw4AAADNoRnKwdHR0cHBwba2tmTlJ3ampCoe9XB8fLxz3szMjO7UH/WmOouP1IPN9lzOMPGAlUpFPTx69KjpPHbsmHmu2k4dUB3BXsOJI8XrmSt22QAAoAk0QzmoiZWf2Dk3XyyqsmbJkiWdibv6VPk1PDyst00xpGpKvaEMDAzoDXFksn7SzxLPkhxmti0HzP5MDTNXpY6gjmMGZIkjsxMULzs7DAAANIewysFa7pcUKz+x00i9AZZ8uHXr1sSe3xErP7MtPmXOehbxgOY42UKw6nNT50pJjcxGu+ChLLuQlI1wU4pkmnCAteQdKQiQm6SEVQ7W8m1qsfITOw1LoWb09fWZD0nNO2pi2ZT3carlLGJJZ+jO5E/98bHW09OTHJbdzkqN1NEWJ5gaPJc/DBa1rOcGEsk04QBryTtSECA3SaEczH2Y7RSrN/FZW7ZsMduWs4gHNHRn9meKeEBRaqSOdt7Ti1w27GpZzw0kkmnCAdaSd6QgQG6S0gzl4KOPPrp3795ly5Zt27ZNbZw8eTKvM8VS8Rji/XZibZR3d53lLGZbPLXuTP5MHtacTrxCUWqkjnbe01OXlDcMFotbzw0nkmnCAdaSd6QgQG6S0mDl4Ozs7P79+6enp5Odu3fvbkk4ceJEXmeK/nhX/JKHIX4bVyzpCn5YLA4TT50tB8XnilcoSo3U0c57eio4ecNgUXU9N4dIpgkHWEvekYIAuUlKWOVg3v2Szz///Mc+9rE3velNvb29k5OT6d04nf7dNEniJ+Z50Ua9RBLhSKYJB1hL3pGCALlJSljlYNa//Mu//OEf/mGlUlmxYsXatWupBQEAAOor0HJQvx24cePGtnlvfOMb1Ta1IAAAQN0FVw6atwN1Iahcf/311IIAAAAlCascPHz48Nlnn61KwGQ5CCBk6ZcxAKDRhFUOPvLII7Ozs/v27bv44ovPOeecvr4+/feNqhF5d7Du3NydGrNIIhzJNOEAa8k7UhAgN0kJqxxMfpt6ampq165dqhC84IILVq5cSUVYd26+ux6zSCIcyTThAGvJO1IQIDdJCbcc1MybhStWrFi9ejUVYR1lo436iiTCkUwTDrCWvCMFAXKTlNDLQUO/WcjvHawjS7RRF5FEOJJpwgHWknekIEBuktIw5aAm/q8kWJyq0UaNIolwJNOEA6wl70hBgNwkJaxy0M39ktCIdtkiiXAk04QDrCXvSEGA3CQlrHIQAAAAjlEOAgAARI1yEAAAIGqUgwAAAFELqxx0c78kNKJdtkgiHMk04QBryTtSECA3SQmrHHTzbWpoRLtskUQ4kmnCAdaSd6QgQG6SQjkYL6JdtkgiHMk04QBryTtSECA3SWmkcnBkZGRiYsI8fOaZZ3afcvDgwcTAFw0NDVUqlXTvAvX396e7fJiZmens7BwdHU3vWCxLtItPufjICFki3EwimSYcYC15RwoC5CYpDVMOHjhwYOnSpWNjY6bnhhtuaGlp6ZynNpKVYlLt9UrVI1QdUBd1P4sl2sXPVXVk1QFNzBLhZhLJNOEAa8k7UhAgN0kJqxzMu1/y0KFDXV1dra2tyXKwra3NPExup9RejlQ9QtUBdVH3s+RFe24h56o6suqAJmaJcDOJZJpwgLXkHSkIkJukhFUO5hkdHR0cHEzVfJs3b7733nv1dsFyUH/eqqntIp3j4+NVC5rUAPVQPSvvgMnO4iP1YLM9lzNMPGClUlEPjx49ajqPHTtmnqu2UwesOmVxpHg9c8UuGwAAeNQY5aAm1nwTExO33357S0uLKQ1TkuWIuK0KTdM5MDCQ2hgeHrbcfajqVFXWLFmypDNxV58ar56lt+1nEUcmL1I/SzyLOBfLAbM/U8MKTnkuZ2R2guJlZ4cBAAC/GrgcfPbZZ9/1rnepQnDp0qU7d+5MDDyNWPqktrOdVUcmpQYkH27dujWx53fsZxGfMmc9i3hAcxzdmf2Z3JvXKao6suoAzbILAAA408Dl4NDQUMu8559/PjEqLa80Mdt9fX3m40vzXpc4Mk9qgDi++FnyPk61nMVsi6fWncmf+uNjraenJzksu50ljhQnmByg5Q0DAAC+hFUO2u+XTJWD4mfHWWLtktwu3pknNUAcLx5Q7EzasmWL2bacRTygoTuzP1PRFg8oEkeKnant1EP7WZqAfT03jUimCQdYS96RggC5SUpY5WDet6kfffTRvXv3Llu2bNu2bWrj5MmTc/PloH6off/7308/bV5e/WG2xTvhxM48lorHEA8oXk/e3XWWs4g1maE7kz/1YXW0zenEKxSJI8XOucwl5Q1rSnnruclEMk04wFoqyfT09P79+2dnZ9M7MkhBgNwkpTHKwd27d+vPhbUTJ07MzZeDyc7sO4XZrzKIn8Pavydb9Wu2c5lfEC2OFw8olnTiRSYHaOIw8dTZclA/d/ny5cnnilcoEkeKnabfBCdvWFPKW89NJpJpwgHWUnkmJyd7e3t37do1NTWV3pdACgLkJimNUQ6GQP+ilqRsAdpYqka7+absWNUIN4dIpgkHWEul+vSnP71q1apKpXLJJZfs27dPfLOQFATITVIoB+NFtMsWSYQjmSYcYC2Vbffu3e3t7Zdeeulb3vKW7u7u7JuFpCBAbpISVjno5n5JaES7bJFEOJJpwgHWkgOqImyb96pXvWr79u0XX3xx8s1CUhAgN0kJqxzUaxQAADiwatWqLVu2qI3u7u7Dhw+n/1ZGNMIqBwEAQHkmJyfXrFljysFKpdLb2/vRj35UvJUQ8aAcBAAgCslaUBWCV1xxxcTERHoQokQ5CABA81O1YEdHhyoEeTsQWWGVg27ul4RGtMsWSYQjmSYcYC2VR9WCXV1dVd8OJAUBcpOUsMpBN9+mhka0yxZJhCOZJhxgLZWE/5WkoblJCuVgvIh22SKJcCTThAOsJe9IQYDcJIVyMF5Eu2yRRDiSacIB1pJ3pCBAbpJCORgvol22SCIcyTThAGvJO1IQIDdJCascdHO/JDSiXbZIIhzJNOEAa8k7UhAgN0kJqxwEAACAY5SDAAAAUaMcBAAAiBrlIAAAQNTCKgfd3C8JjWiXLZIIRzJNOMBa8o4UBMhNUsIqB918mxoa0S5bJBGOZJpwgLXknT0FIyMjyf/j7plnntl9ysGDBxMD8Vv9/f3prkWxJ6VeKAfjRbTLFkmEI5kmHGAteWdJwYEDB5YuXTo2NmZ6brjhhpaWls55aiP7vyHPzMzovYra1p2VSkX3XHjhhb/5zW90Z7JysldR5unj4+PJfn0ucxbTkzq7S1u3bk13LYolKXVEORgvol22SCIcyTThAGvJu7wUHDp0qKurq7W1NVkOtrW1mYfJbUMs8op3isze4eHhZJGn+/OOYz9mCC644IJ01yl5SakvysF4Ee2yRRLhSKYJB1hL3uWlYHR0dHBwMFXzbd68+d5779XbNZaD6umXX3652lA/1bYZkCU+fe7UW3HJN+TyRmbpdxyPHj1q3kcU31lUBxkfHy/SqQwNDanDmofiMHMWtaHCawan5CWlvsIqB93cLwmNaJctkghHMk04wFryzp6CbM33ox/96PZ5LS0tO3bsSO6ayynIsjXc3HxBduONN6qNd73rXckqKqvqMe2dIr03+TNZnA0MDOgNdWHDw8NFOrXkSZPDsldovzx7UuolrHIQAACEKVsOfu1rXztrnioHC747qN+Ke9nLXnbeeeel9qqD9PT02Gsj8ZjFO0XJQjA70n5AsTP7UNzObnhEOQgAAKpLlYMHDhw4evSouEuz1EAf/vCHk++l6U5VC77+9a+310biMc33SxTz5qI4UqT3Jn/29fUVPKDYmX0obps3R+v1pZNaUA4CAIDqUjVfjV8lEfemtrPEkcU7RXpv9mdy74I6sw/F7aeffvplL3uZvnfQ7PWFchAAANg8+uije/fuXbZs2bZt29TGyZMnVad62NPTs3de8Q+LzcZvfvObK6+8MtWZ2s4ye5PfLBafLnaK9N7kT/POpTqLeXdQvE1Q7NTyLiBbDp5//vlmry9hlYNu7peERrTLFkmEI5kmHGAteZeXgt27d7cknDhxQnVOT0+bnu3bt6efk//9XDNgEaWb+HsHxaeLZxdly0HzXHWW5EVmvx0sdo6OjqqHS5YsUT/VtjmseYreSH5GbPm8OC8p9RVWOejm29TQiHbZIolwJNOEA6wl78JJgf61L0nZdx8XqsZjinWq2FmQWCNmuUkK5WC8iHbZIolwJNOEA6wl70iBhVixiZ0Fmfcg7R8Wu0kK5WC8iHbZIolwJNOEA6wl70hBgNwkhXIwXkS7bJFEOJJpwgHWkndtvqUvCK5eF2GVg27ul4RGtMsWSYQjmSYcYC155zcFlIMiN0kJqxwEAABxohz0iHIQAAD4RznoEeUgAADwj3LQI8pBAADgH+WgR2GVg27ul4RGtMsWSYQjmSYcYC155zcFlIMiN0kJqxx0821qaES7bJFEOJJpwgHWknd+U0A5KHKTFMrBeBHtskUS4UimCQdYS95VTcHs7Oz+/funp6fTO+qBclBUNSl1QTkYL6JdtkgiHMk04QBryTtLCqampnbu3Nnb2zs5OZneVyeUgyJLUuqIcjBeRLtskUQ4kmnCAdaSd9kUzM7O7tu376KLLlqxYsXq1avLqwXnKAdzZJNShrDKQTf3S0Ij2mWLJMKRTBMOsJa8S6Zgamrq+uuvX7NmTV9fn6oFu7q6Sq0F5ygHc7h5XYRVDgIAAI/M24Evf/nLVQmoSjQ3teAc5aBXlIMAAOC3Dh8+3OZV+oLgCuUgAAD4nR/96EfXXnttR0eHKdGuvvrqjRs3Onh3EB5RDgIAgLS77777vPPO0xXhZZddRkXY3MIqB93cLwmNaJctkghHMk04wFryLpsC82Zhe3v72rVrqQjdyyalDGGVg26+TQ2NaJctkghHMk04wFryzpKCu++++81vfnOpv3cQIktS6ohyMF5Eu2yRRDiSacIB1pJ3VVNQ6v9KAlHVpNQF5WC8iHbZIolwJNOEA6wl70hBgNwkhXIwXkS7bJFEOJJpwgHWknekIEBukhJWOejmfkloRLtskUQ4kmnCAdaSd6QgQG6SElY5CAAAAMcoBwEAAKJGOQgAABA1ykEAAICohVUOurlfEhrRLlskEY5kmnCAteQdKQiQm6SEVQ66+TY1NKJdtkgiHMk04QBryTtSECA3SaEcjBfRLlskEY5kmnCAteSdPQUjIyMTExPp3vz+Ourv7093RcOelHqhHIwX0S5bJBGOZJpwgLXknSUFBw4cWLp06djYWKr/4YcfFvvn6lrD1fFQDceSlDqiHIwX0S5bJBGOZJpwgLXkXV4KDh061NXV1dramir7vvOd72zcuDHbr9WxhqvjoRpOXlLqK6xy0M39ktCIdtkiiXAk04QDrCXv8lIwOjo6ODjY1taWLPueffbZq6666rzzzkv1G2INNzMz03mK2i7SOT4+Lh4qEnlJqa+wykEAABCmVNl32WWXdXV1PfnkkwsqB5OdZlvVmqZzYGAgtTE8PFypVMwAlIFyEAAAVJcq+9TDN7zhDbfffvvSpUvVxvHjxxNjf6t4OZhkOquORB1RDgIAgOpS5WB3d/dZ81pbW88888zsl4vFGk4s8vr6+syHxeaNQHEkSkI5CAAAqsv7UDivX6zhxCKveCdKElY56OZ+SWhEu2yRRDiSacIB1pJ3eSl49NFH9+7du2zZsm3btqmNkydPJvfWXg6KtwmKnU1jenp6//79s7Oz6R0ZeUmpr7DKQTffpoZGtMsWSYQjmSYcYC15l5eC3bt3tyScOHEiuTevHFQ1nPkIeP369bqz+JeIxc5mMjk52dPTs2vXrqmpqfS+hLyk1BflYLyIdtkiiXAk04QDrCXvSIFje/bsWbly5YoVKy655JJ9+/aJbxa6SQrlYLyIdtkiiXAk04QDrCXvSIF7f/mXf9ne3t7X13f55ZevW7cu+2ahm6RQDsaLaJctkghHMk04wFryjhR4oSvCtra2NWvWDA4OXnDBBck3C90kJaxy0M39ktCIdtkiiXAk04QDrCXv2hCGvr4+9bO7u/vw4cNuXhdhlYMAAABR+ad/+qdVq1aZWrCzs7O/v/+uu+4SbyUsCeUgAACAH6YW7OjoUBvXXHON/YvGJaEcBAAA8EDVgpVKpb293f3bgSmUgwAAAK5NTk52dXX5ejswJaxy0M39ktCIdtkiiXAk04QDrCXvSIEz/K8kNm6+TQ2NaJctkghHMk04wFryjhQEyE1SKAfjRbTLFkmEI5kmHGAteUcKAuQmKZSD8SLaZYskwpFMEw6wlrwjBQFykxTKwXgR7bJFEuFIpgkHWEvekYIAuUlKWOWgm/sloRHtskUS4UimCQdYS96RggC5SUpY5SAAAAAcoxwEAACIGuUgAABA1CgHAQAAohZWOVjL/ZIjIyMTExPJh7sTkrug1RJtFBFJhCOZJhxgLXlHCgLkJilhlYOL/jb1gQMHli5dOjY2Znra2tqWL1/eecpnP/vZxPDfqlQqetf4+HhqVyQWHW0UFEmEI5kmHGAteUcKAuQmKc1QDh46dKirq6u1tTVVDiYfZvX39+uN4eHhmZmZ03dGYXHRRnGRRDiSacIB1pJ3pCBAbpLSDOXg6Ojo4OBgqv4rXg4mt1VdaN5QNDWi2js+Pp7qPHbsmBmptnVnY1lctFFcJBGOZJpwgLXkHSkIkJukNEM5qGXLwSuuuOKuu+763Oc+9773vS/7ibBYDoqdlUpleHg41SmObCy1RBtFRBLhSKYJB1hL3pGCALlJSljlYC33S6bKwe7u7rNOSX2OrIn1XI2djaWWaKOISCIcyTThAGvJO1IQIDdJCascrIXl02Fxl1jPFe8030RRenp6zAAAAIDG0rTl4J133vntb39b3KWJRd7iOgEAABpXg5WDs7Oz+/fvn56eTnY++uije/fuXbZs2bZt29TGyZMnVefKlSs3bdq0d95LX/rSPXv2JJ8yl6jnkt8srlr5me2BgQHTOTg4aLYBAAAaS8OUg1NTUzt27Ojt7Z2cnEzt2r17d0vCiRMnVKcqGU3P9u3bU0+Zy/m9g3nfLDYDzLY4EgAAoOGEVQ5m75ecnZ3du3fvueee297ergqvbC2IRctGG/UVSYQjmSYcYC15RwoC5CYpYZWDyW9TT01NDQ8Pr169WlWBq1atWr9+PbVgfbn57nrMIolwJNOEA6wl70hBgNwkJbhy0LwdePbZZ69YsaKtrU2Vg9SCZXCzwmIWSYQjmSYcYC15RwoC5CYpYZWDu3btUsVfGwAAcM5N5YEFcZOUsMpBNeef//zn73//+7u6utrb2/XqvPTSSzds2MC7g3XnZoXFLJIIRzJNOMBa8o4UBMhNUsIqB5P3Sx46dEgVgrooPP/886kI687N3akxiyTCkUwTDrCWvCMFAXKTlLDKwazkm4Vr166lIgQAAKiv0MtB49ChQ295y1vE3zsIAACARWuYclAT/1cSAAAALFqDlYMAAACor7DKQTf3S0Ij2mWLJMKRTBMOsJa8IwUBcpOUsMpBN9+mhka0yxZJhCOZJhxgLXlHCgLkJimUg/Ei2mWLJMKRTBMOsJa8IwUBcpMUysF4Ee2yRRLhSKYJB1hL3pGCALlJCuVgvIh22SKJcCTThAOsJe9IQYDcJCWsctDN/ZLQiHbZIolwJNOEA6wl70hBgNwkJaxyEAAAAI5RDgIAAESNchAAACBqlIMAAABRE8rB+++//y/+YuT22z/mvt100/uznQ7a3r17X3jhhXQgnFPXcNdde7KXV1JzHO3R0Y998YtfTM85eLW8HBYd4YILspZrq2Nb9DTr2ApGLECBJDGQFsJaCqQVXNJ1Xz/1TUHBWcDOz1dJxsf/n3vu+fvjx09E1f7lX/7tz/5s98mTJ1PRcEmd/b3v/cA///P/l728pmn33feFb37zm+mZB8zXy6HIgvR1bWG2IhELEEmk5bUiSzr89VNkFqjKTzl4yy0jTz01m01q07fvfvff9u3bl4qGS5/5zJ7mrgVVU0vrtttuT888YB5fDlUXpMdrC7NVjViASCLN0qou6YZYP1VngUCky8Gbbx7JpjOS9vGPfzwVDZdGRm7PXlLztcYqB/2+HOwL0u+1hdnsEQsQSaTZm31JN8r6sc8CgaAcfLG5+cXfeVSdlL2k5muUg8WbfUH6vbYwmz1iASKJNHuzL+lGWT/2WcCis7Mz3VUaysEXm98lSzkYIL8vB/uC9HttYTZ7xAJEEmn2Zl/SjbJ+7LNoGsuXL++cd+TIkfQ+SZFSr8iYeqEcfLH5XbKUgwHy+3KwL0i/1xZms0csQCSRZm/2Jd0o68c+i6ZhSrehoaFf/epXp+8UFCn1ioypF8rBF5vfJUs5GCC/Lwf7gvR7bWE2e8QCRBJp9mZf0o2yfuyzaBrJ0s1sq7pQv2WopGrEVKknjuycf68x1SmOFDt/+tOfmk61rTvzUA6+2PwuWcrBAPl9OdgXpN9rC7PZIxYgkkizN/uSbpT1Y59F0+iUysHNmzebzr6+Pr2xY8cONeCMM85QP9W2ZeTy5cuHhoZSneLI5NnNAPGS8lAOvtj8LlnKwQD5fTnYF6Tfawuz2SMWIJJIszf7km6U9WOfRdOoWnulOsUxmtlV/Jhbtmw5fc9vVX16EuXgi83vkqUcDJDfl4N9Qfq9tjCbPWIBIok0e7Mv6UZZP/ZZNA2x9lq/fn3nKcuXLzcDkmM0cWRyjNkWR4ofFptvt2i6M0/Dl4MrV67Kdi6u+V2ylIMB8vtysC9Iv9dm2tGjP1Wvwauv3p7d5b7ZIxagBSWxjn/W0Rql2Zf0gtbP4lpdVp19Fk0jWW+ZbbGz6kP708XOpPPPP19viHvzFC0Hzzrrv6tlYdp99z14000f1ttnnHGG3lA9xxeyevRfJLqp7eyAIu3ii1+d7RRb1Qvzu2Qt5WA2+NkxyVZ1poto9Tpmc5SDyWgkt82SNus5b5FnR2abfUGK15b3qiyv1Wth1KXZIxYgMYnHT3/JmxWy0FAvdHy9Wt6ar3uznKiMuRc5ZnJMkfFVm31J562fupxat7ocyj6LpmFqr+Q3i829farT/u6gOFK8d1AcKd5QaDbmTh8gKloOWtZEapdlZKrV/ZVjb1VP4XfJWsrBqlde4/girV7HbI5ycNmy/7Zhwzl6W1zG2Y28bUtg7Qsy79p0sxy2vs3ZiYo0e8QClJfEhS4VsS10fL2aePFlNMuJyjhvkWNaLmlxzb6ki6yfGltdDmWfRdMQf++g+QxXf0E4Mfx3u8xXScSR5mGn9CXi5Ejxw2KxM08o5aB5ky/5D7477vgrM/Lgwa/qzuS/Ai+99LXqn9GpY4oj9a7kw2zzu2QXWg4mO+0pEGMi/sNaDL54TPHp4olSrTnKQbXqrrjizT/+8S/0rE2/WcZmQ9wrjsw2+4LMuzbdUvkSU1M8ieJI8UTiSPGY5g2wxx77YXKXeah3WY6QbfaIBSgviSulV7cYBDHg2YPkjRSPWWMrfvG15Dp58OOZ11Fyl36YPaZ4drFTPKbYzD8U1U+1rTtribx9SRdZP6aJl2Hv1FeoO8XI1GUWyPOzn/3s2LFjj5yitlVPelD9+CwHxb8Ie3s3mO2bbvqw/mBU/c1x5ZVv05320yVHmkNdffX2lac+PrPc5OR3yS60HBRrC3GmYvTOP/9C83QTKDH44jGTl2S2xROlWnOUg3p2yZ/JjeS2uMjFkdlmX5B516Zb6rBiasQ1II5MHs08q8aFkbdR/AjZZo9YgPKSmJyjWUJiEMRw1ZiaGlvVE5nFVnWk/ZLEF5c4d/GY4tnFTvGYYtP/UFQbr3vdH5x16q2Kqi+05B+8qWZf0kXWj9hptsVrMxvqCs0sxKeLgc02+yyg/frXv37sscf27t173XXXvfrVr161alWbRPWrvWqMGqnGq2elD7RYRcvBsxL3stjfN7KsiVTT/wS59dbTyiDx6cnOqv8KFLezD7PN75K1lINi8HX01MbExHdT/yyzTFz8A9QMsITIckzx6eKJjjdXOTgw8Jof//gX4vTNdtVFbom5fUHmXZtulnyJqbHPQnxKdnzqoXjM7PumqY3iR8g2e8QClJfE5Es++X6SGSBGxpKLvJFiZ41NPGaNnWITX1ziE5MPsyswuS12ig/Fpse0tLScfXa3OL7IiZLNvqTz1o94wKpntF9b1c5memG69MILL3z1q1995zvfaeq/V77ywquuuuYDH/jIxz/+6T177nnwwa/rprZVz3vf+2dvfevbX/nKi/Tgjo6Oq6666vOf//xzzz2XPvQCFS0HxdUj7rKMFJt6MaunbNp0rn4oPl3sFHeJS1Z8mG1+l6ylHLRcuf5zxz5efPrZZ69beervG/Hff6lmOabZtjzdtGYqB/WG2U7+FW5CqltqkVtGJpt9QeZdm26WfJlWdQ2YbfETpez4vKeLZ8/u1RvJ4GTH2Js9YgHKS6I436qxteQib6TYKbYvfen/mKSo7ewA08Rjip1Vc22/JN1SLy7xieJxxLOLnZaDpJoeo/5Mfs1rLjPji7/Qss2+pGtfP8WvTYyMeKJss88iWidOnBgZGenp6VFV3TnnbLrppg/dd9+DP/jBU9kAik2NVOPf//4P9/VtUkdYt26dOpo6Zvo0hfksB5P/mLAvL7FT3CWuY/FhtvldsgstB/Xf0I8/fvzQoW8W/xta7LQHX9y10Keb1mTlYE/Py+1/hlZd5Jag2Rdk3rXpZsmX2Fn82or/vSse07JXb9gH25s9YgHKS6I436qxteQib6TYWWMTj1m1M7s3b4Bp4ouryMOFdlbdJY4Rp2nvzDb7ki5p/VTtzO61N/ss4vTQQw+pQrBSqWzf/u4HHvjHp56azcatYFPPVUcYHt6hjqaOqY6cPlkxPstBcc2Jt69ZjpnadVb+DRmWg+jmd8kutBxM/lFY/AN008S7Q8TgiwcRcyeeKNWarBxM3jBeNSb2zmyzL8i8a9PNki/TxDUgXpt4g1F2fN7TxbNn9+qN5PHNecUjZJs9YgHKS6I436qxteQib6TYWWMTjyn+yVw11/ZLsoy0P9RNPLvYqZt4kFQTL0l8oYkByTb7kq59/YjXZu88npMsS7PPIkIjIyNtbW2XXXb5kSP/nA3Xops62ute93p1ZHX89CkLKFoOpt4othQKlpGpJn4ClexMfrM4+3Tx9t6V+V900ke23Ajsd8laykExpMmYpOKTmqkYPRPn5HfHxOCLxxRzJ54o1ZqsHExui51VA2UJmn1B5l2bbqnDimcR14B4beIssuPzRopnz55RbxQ/QrbZIxagvCSK8012mm0xXMldxV+z4kkX0fJOlP2TOW+kOZT9ksSnJ3cV/DOw6iWJxxSbePHmmKkXWjYg2WZf0nnrR/wrQ5yaeG32zuTTzV57s88iNp/61KdUxXb99Tc8+eTPs7Gqsalj/smfvFcdf2xsLH3iaoqWg/9/e/f3EmUWx3H83xiYRnAatRvbO4nYvAv2rotFDVvDyU102EoSjYgCdSzDHysS6AaSBm6yrA5FtNTFhhteFHtR5BAUKLZd7LJFeVPg1X5pWIvzOGeenGfmnJnzfvG9GKYz55znPN9HPkRj+dTnX1DfKu+wQCqfmc22rCYOllOVRxwsTukb0uze7Cz9iVnInZuYz0/msiyfB6Jv6VLpH/1VOCWdTkcikZaWY95TCrDi8e9lFVlLXV6rGHGwmOXzGdu2zLYscdBCZh8HfUOa3ZudpT8xC7lzE/P5yVyW5fNA9C1dKv2jvwqndHR0xmJV/r8vsrOS+aurqxOJhLq8VrnFwXzKbMsSBy1k9nHQN6TZvdlZ+hOzEDeR0pe+pUulf/RX4Y7Nzc3Kymgi0eU9osDr5MnT0WhUVlQ3kR1x8FOZbVnioIXMPg76hjS7NztLf2IW4iZS+tK3dKn0j/4q3PH48eOP/6rvJ+8RBV4TE1dlradPn6qbyI44+KnMtixx0EJmHwd9Q5rdm52lPzELcRMpfelbulT6R38V7pienpaIdvHiqPeIAi9ZRdaamZlRN5EdcfBTmW1Z4qCFzD4O+oY0uzc7S39iFuImUvrSt3Sp9I/+KtyxsLAgEe3MmQveIwq8ZBVZS1ZUN5GdGgcvXBj0zutCvXq1YbZl+/pK48HOswYHL6tXbjGDj0POhjS4Nzsr54lZiJtIaSpnS5dE/+S8CncsLS1JRGtoaPaeUuAlq8hasqK6iezUODg0NJJOv/ROXfY1P7+YSqWU0yimGzfmZ2d/8W6snOrZs7/Gxn5Ur9xiBh+HnA1pcG92Vs4TsxA3kdJUzpYuif7JeRXuWF5elohWWRktwjeLZRVZS1ZUN5GdGgc3NjYuXx5JJocGBi65U8nkpQcPHihHUXz37//R33/Ru73yKGmqkZExaTD1si1m6nHw05Cm9mZn+TkxC3ETqWzlp6Xt7x8/V+GOTBwMh3cV+vcOyvyySr5xEAAAAMHKxMH29h8K+r+SyMxbqxAHAQAALJKJg6nUvd7e86HC/J/FMqfMLPPLKsRBAAAAu2zFQYlu167NV1fXhMPh1tbji4t319ffeuOdz5LPygwyj8wmc8rM8iZxEAAAwDqfx0GpdPplb+/53btj8mZt7d7u7rNzcyn/3zKRkTJePiWflRkkCMpsW18tIg4CAABYR4mDmXr+/O8rV6YPHfp2165I6KO6un2Njc1dXb3DwxOTkzMyPlPyWt7p6TnX1HRExmQGRyIVhw9/d/36r6ur/34+LXEQAADAOtvGwa168eKf27d/Hxoab24+un//15LzMoFPIe/Ln8oYGSnj5VPeqYiDAAAANtLHQW89ebK6vPxk628H5bW84x22bREHAQAArPOlcTCfIg4CAABYhzgIAADgNOIgAACA04iDAAAATiMOAgAAOI04CAAA4DTiIAAAgNOIgwAAAE4jDgIAADiNOAgAAOA04iAAAIDTiIMAAABOIw4CAAA4jTgIAADgtIcPH0pEW1j4zZveAi9ZRdaSFdVNZEccBAAAKKy1tTWJaFNTs970FnhdvTora8mK6iayIw4CAAAU1ubmZmVlNJHo8qa3wOvEidPRaFRWVDeRHXEQAACg4NrbO2KxqpWVdW+AC7Bk/qqq6kQioS6vRRwEAAAouJWVdCQSaWk55s1wAdbRo22ySjqdVpfXIg4CAAAUw+joWCgU6uw8tbb2xpvk8iyZM5E4JfOPj4+rC+dCHAQAACiSvr4BSWwHD36ztPSnN9LtuGQ2mVNmTiaT6pI+EAcBAACK5+bNmzU1NeFwuLX1+OLi3fX1t95457PkszKDzCOz7dmz59atW+pi/hAHAQAAiurdu3f9/QOxWFUoFKqt3dvdfXZuLuX/WyYyUsbLp2prv5IZJAgmk0mZU13GN+IgAACAAe/fv5+b+7mhoTESiYQ+qqvb19jY3NXVOzw8MTk5k0rdy5S8lnd6es41NR2RMZnBFRUV8Xj8zp07X/Q7ZbZFHAQAADDpw4cPjx49mpqaisePHThQLzkvE/gU8n59fX1bW5uMlPHyKXWinSIOAgAA2OX169erq6vL/5PX8o46KDjEQQAAAKcRBwEAAJxGHAQAAHAacRAAAMBpxEEAAACnEQcBAACcRhwEAABwGnEQAADAacRBAAAApxEHAQAAnEYcBAAAcBpxEAAAwGnEQQAAAKcRBwEAAJz2H0jxPZKe7H9IAAAAAElFTkSuQmCC;" vertex="1" parent="1">
            <mxGeometry x="-20" y="70" width="858" height="632" as="geometry" />
          </mxCell>
        </UserObject>
      </root>
    </mxGraphModel>
  </diagram>
</mxfile>
